{
  "accessors": [
    {
      "bufferView": 2,
      "componentType": 5126,
      "count": 65532,
      "max": [
        50.0,
        31.28078842163086,
        2612.17626953125
      ],
      "min": [
        -50.0,
        -31.28078842163086,
        0.0
      ],
      "type": "VEC3"
    },
    {
      "bufferView": 2,
      "byteOffset": 786384,
      "componentType": 5126,
      "count": 65532,
      "max": [
        0.9999926686286926,
        1.0,
        1.0
      ],
      "min": [
        -0.9999901652336121,
        -1.0,
        0.0001013852161122486
      ],
      "type": "VEC3"
    },
    {
      "bufferView": 1,
      "componentType": 5126,
      "count": 65532,
      "max": [
        1.0,
        1.0
      ],
      "min": [
        0.0,
        0.0
      ],
      "type": "VEC2"
    },
    {
      "bufferView": 0,
      "componentType": 5125,
      "count": 382959,
      "type": "SCALAR"
    },
    {
      "bufferView": 2,
      "byteOffset": 1572768,
      "componentType": 5126,
      "count": 65532,
      "max": [
        49.868072509765625,
        31.148801803588867,
        3944.98046875
      ],
      "min": [
        -32.71767807006836,
        -31.28078842163086,
        0.0
      ],
      "type": "VEC3"
    },
    {
      "bufferView": 2,
      "byteOffset": 2359152,
      "componentType": 5126,
      "count": 65532,
      "max": [
        0.9999859929084778,
        1.0,
        1.0
      ],
      "min": [
        -0.9999889135360718,
        -1.0,
        0.00010617957741487771
      ],
      "type": "VEC3"
    },
    {
      "bufferView": 1,
      "byteOffset": 524256,
      "componentType": 5126,
      "count": 65532,
      "max": [
        0.9986807107925415,
        0.997890293598175
      ],
      "min": [
        0.1728232204914093,
        0.0
      ],
      "type": "VEC2"
    },
    {
      "bufferView": 0,
      "byteOffset": 1531836,
      "componentType": 5125,
      "count": 383760,
      "type": "SCALAR"
    },
    {
      "bufferView": 2,
      "byteOffset": 3145536,
      "componentType": 5126,
      "count": 65532,
      "max": [
        49.736148834228516,
        31.016815185546875,
        3964.389404296875
      ],
      "min": [
        -15.03957748413086,
        -31.28078842163086,
        0.0
      ],
      "type": "VEC3"
    },
    {
      "bufferView": 2,
      "byteOffset": 3931920,
      "componentType": 5126,
      "count": 65532,
      "max": [
        0.999994695186615,
        1.0,
        1.0
      ],
      "min": [
        -0.9999768137931824,
        -1.0,
        0.00010617957741487771
      ],
      "type": "VEC3"
    },
    {
      "bufferView": 1,
      "byteOffset": 1048512,
      "componentType": 5126,
      "count": 65532,
      "max": [
        0.9973614811897278,
        0.9957805871963501
      ],
      "min": [
        0.34960421919822693,
        0.0
      ],
      "type": "VEC2"
    },
    {
      "bufferView": 0,
      "byteOffset": 3066876,
      "componentType": 5125,
      "count": 384588,
      "type": "SCALAR"
    },
    {
      "bufferView": 2,
      "byteOffset": 4718304,
      "componentType": 5126,
      "count": 65532,
      "max": [
        49.60422134399414,
        30.884828567504883,
        2620.709716796875
      ],
      "min": [
        2.3746702671051025,
        -31.28078842163086,
        0.0
      ],
      "type": "VEC3"
    },
    {
      "bufferView": 2,
      "byteOffset": 5504688,
      "componentType": 5126,
      "count": 65532,
      "max": [
        0.9999942779541016,
        1.0,
        1.0
      ],
      "min": [
        -0.9999955892562866,
        -1.0,
        0.00012493958638515323
      ],
      "type": "VEC3"
    },
    {
      "bufferView": 1,
      "byteOffset": 1572768,
      "componentType": 5126,
      "count": 65532,
      "max": [
        0.9960421919822693,
        0.9936708807945251
      ],
      "min": [
        0.5237467288970947,
        0.0
      ],
      "type": "VEC2"
    },
    {
      "bufferView": 0,
      "byteOffset": 4605228,
      "componentType": 5125,
      "count": 385413,
      "type": "SCALAR"
    },
    {
      "bufferView": 2,
      "byteOffset": 6291072,
      "componentType": 5126,
      "count": 65532,
      "max": [
        49.472293853759766,
        30.75284194946289,
        3761.27783203125
      ],
      "min": [
        20.052770614624023,
        -31.28078842163086,
        0.0
      ],
      "type": "VEC3"
    },
    {
      "bufferView": 2,
      "byteOffset": 7077456,
      "componentType": 5126,
      "count": 65532,
      "max": [
        0.9999921917915344,
        0.9999920129776001,
        1.0
      ],
      "min": [
        -0.99998939037323,
        -1.0,
        0.00019608989532571286
      ],
      "type": "VEC3"
    },
    {
      "bufferView": 1,
      "byteOffset": 2097024,
      "componentType": 5126,
      "count": 65532,
      "max": [
        0.9947229623794556,
        0.9915611743927002
      ],
      "min": [
        0.7005277276039124,
        0.0
      ],
      "type": "VEC2"
    },
    {
      "bufferView": 0,
      "byteOffset": 6146880,
      "componentType": 5125,
      "count": 386232,
      "type": "SCALAR"
    },
    {
      "bufferView": 2,
      "byteOffset": 7863840,
      "componentType": 5126,
      "count": 39355,
      "max": [
        49.340370178222656,
        30.6208553314209,
        2688.70556640625
      ],
      "min": [
        37.99472427368164,
        -31.28078842163086,
        0.0
      ],
      "type": "VEC3"
    },
    {
      "bufferView": 2,
      "byteOffset": 8336100,
      "componentType": 5126,
      "count": 39355,
      "max": [
        0.9999863505363464,
        0.9999915957450867,
        1.0
      ],
      "min": [
        -0.9999860525131226,
        -1.0,
        0.00019398221047595143
      ],
      "type": "VEC3"
    },
    {
      "bufferView": 1,
      "byteOffset": 2621280,
      "componentType": 5126,
      "count": 39355,
      "max": [
        0.9934036731719971,
        0.9894514679908752
      ],
      "min": [
        0.8799472451210022,
        0.0
      ],
      "type": "VEC2"
    },
    {
      "bufferView": 0,
      "byteOffset": 7691808,
      "componentType": 5125,
      "count": 232800,
      "type": "SCALAR"
    },
    {
      "bufferView": 2,
      "byteOffset": 8808360,
      "componentType": 5126,
      "count": 1518,
      "max": [
        50.0,
        0.0,
        0.0
      ],
      "min": [
        -50.0,
        -479.4964904785156,
        0.0
      ],
      "type": "VEC3"
    },
    {
      "bufferView": 2,
      "byteOffset": 8826576,
      "componentType": 5126,
      "count": 1518,
      "max": [
        0.0,
        0.0,
        1.0
      ],
      "min": [
        0.0,
        0.0,
        1.0
      ],
      "type": "VEC3"
    },
    {
      "bufferView": 1,
      "byteOffset": 2936120,
      "componentType": 5126,
      "count": 1518,
      "max": [
        1.0,
        1.0
      ],
      "min": [
        0.0,
        0.0
      ],
      "type": "VEC2"
    },
    {
      "bufferView": 0,
      "byteOffset": 8623008,
      "componentType": 5125,
      "count": 4548,
      "type": "SCALAR"
    },
    {
      "bufferView": 2,
      "byteOffset": 8844792,
      "componentType": 5126,
      "count": 1518,
      "max": [
        50.0,
        0.0,
        0.0
      ],
      "min": [
        -50.0,
        -479.4964904785156,
        0.0
      ],
      "type": "VEC3"
    },
    {
      "bufferView": 2,
      "byteOffset": 8863008,
      "componentType": 5126,
      "count": 1518,
      "max": [
        0.0,
        0.0,
        1.0
      ],
      "min": [
        0.0,
        0.0,
        1.0
      ],
      "type": "VEC3"
    },
    {
      "bufferView": 1,
      "byteOffset": 2948264,
      "componentType": 5126,
      "count": 1518,
      "max": [
        1.0,
        1.0
      ],
      "min": [
        0.0,
        0.0
      ],
      "type": "VEC2"
    },
    {
      "bufferView": 0,
      "byteOffset": 8641200,
      "componentType": 5125,
      "count": 4548,
      "type": "SCALAR"
    },
    {
      "bufferView": 2,
      "byteOffset": 8881224,
      "componentType": 5126,
      "count": 950,
      "max": [
        1643.8292236328125,
        31.28078842163086,
        0.0
      ],
      "min": [
        -479.4964904785156,
        -31.28078842163086,
        0.0
      ],
      "type": "VEC3"
    },
    {
      "bufferView": 2,
      "byteOffset": 8892624,
      "componentType": 5126,
      "count": 950,
      "max": [
        0.0,
        0.0,
        1.0
      ],
      "min": [
        0.0,
        0.0,
        1.0
      ],
      "type": "VEC3"
    },
    {
      "bufferView": 1,
      "byteOffset": 2960408,
      "componentType": 5126,
      "count": 950,
      "max": [
        1.0,
        1.0
      ],
      "min": [
        0.0,
        0.0
      ],
      "type": "VEC2"
    },
    {
      "bufferView": 0,
      "byteOffset": 8659392,
      "componentType": 5125,
      "count": 2844,
      "type": "SCALAR"
    },
    {
      "bufferView": 2,
      "byteOffset": 8904024,
      "componentType": 5126,
      "count": 950,
      "max": [
        479.4964904785156,
        31.28078842163086,
        0.0
      ],
      "min": [
        -2585.15869140625,
        -31.28078842163086,
        0.0
      ],
      "type": "VEC3"
    },
    {
      "bufferView": 2,
      "byteOffset": 8915424,
      "componentType": 5126,
      "count": 950,
      "max": [
        0.0,
        0.0,
        1.0
      ],
      "min": [
        0.0,
        0.0,
        1.0
      ],
      "type": "VEC3"
    },
    {
      "bufferView": 1,
      "byteOffset": 2968008,
      "componentType": 5126,
      "count": 950,
      "max": [
        1.0,
        1.0
      ],
      "min": [
        0.0,
        0.0
      ],
      "type": "VEC2"
    },
    {
      "bufferView": 0,
      "byteOffset": 8670768,
      "componentType": 5125,
      "count": 2844,
      "type": "SCALAR"
    },
    {
      "bufferView": 2,
      "byteOffset": 8926824,
      "componentType": 5126,
      "count": 4,
      "max": [
        50.0,
        31.28078842163086,
        0.0
      ],
      "min": [
        -50.0,
        -31.28078842163086,
        0.0
      ],
      "type": "VEC3"
    },
    {
      "bufferView": 2,
      "byteOffset": 8926872,
      "componentType": 5126,
      "count": 4,
      "max": [
        0.0,
        0.0,
        1.0
      ],
      "min": [
        0.0,
        0.0,
        1.0
      ],
      "type": "VEC3"
    },
    {
      "bufferView": 1,
      "byteOffset": 2975608,
      "componentType": 5126,
      "count": 4,
      "max": [
        1.0,
        1.0
      ],
      "min": [
        0.0,
        0.0
      ],
      "type": "VEC2"
    },
    {
      "bufferView": 0,
      "byteOffset": 8682144,
      "componentType": 5125,
      "count": 6,
      "type": "SCALAR"
    }
  ],
  "asset": {
    "extras": {
      "author": "Mark Walters (https://sketchfab.com/markwalters)",
      "license": "CC-BY-4.0 (http://creativecommons.org/licenses/by/4.0/)",
      "source": "https://sketchfab.com/3d-models/volcan-de-fuego-volcano-guatemala-15419-8ab4349a874e4ca7a5a5d73603547a15",
      "title": "Volcan De Fuego Volcano, Guatemala 15/4/19"
    },
    "generator": "Sketchfab-12.65.0",
    "version": "2.0"
  },
  "bufferViews": [
    {
      "buffer": 0,
      "byteLength": 8682168,
      "name": "floatBufferViews",
      "target": 34963
    },
    {
      "buffer": 0,
      "byteLength": 2975640,
      "byteOffset": 8682168,
      "byteStride": 8,
      "name": "floatBufferViews",
      "target": 34962
    },
    {
      "buffer": 0,
      "byteLength": 8926920,
      "byteOffset": 11657808,
      "byteStride": 12,
      "name": "floatBufferViews",
      "target": 34962
    }
  ],
  "buffers": [
    {
      "byteLength": 20584728,
      "uri": "scene.bin"
    }
  ],
  "extensionsUsed": [
    "KHR_materials_unlit"
  ],
  "images": [
    {
      "uri": "textures/material_0_baseColor.png"
    }
  ],
  "materials": [
    {
      "alphaMode": "MASK",
      "doubleSided": true,
      "extensions": {
        "KHR_materials_unlit": {}
      },
      "name": "material_0",
      "pbrMetallicRoughness": {
        "baseColorTexture": {
          "index": 0
        },
        "metallicFactor": 0.0
      }
    },
    {
      "extensions": {
        "KHR_materials_unlit": {}
      },
      "name": "material_1",
      "pbrMetallicRoughness": {
        "metallicFactor": 0.0
      }
    }
  ],
  "meshes": [
    {
      "name": "Object_0",
      "primitives": [
        {
          "attributes": {
            "NORMAL": 1,
            "POSITION": 0,
            "TEXCOORD_0": 2
          },
          "indices": 3,
          "material": 0,
          "mode": 4
        }
      ]
    },
    {
      "name": "Object_1",
      "primitives": [
        {
          "attributes": {
            "NORMAL": 5,
            "POSITION": 4,
            "TEXCOORD_0": 6
          },
          "indices": 7,
          "material": 0,
          "mode": 4
        }
      ]
    },
    {
      "name": "Object_2",
      "primitives": [
        {
          "attributes": {
            "NORMAL": 9,
            "POSITION": 8,
            "TEXCOORD_0": 10
          },
          "indices": 11,
          "material": 0,
          "mode": 4
        }
      ]
    },
    {
      "name": "Object_3",
      "primitives": [
        {
          "attributes": {
            "NORMAL": 13,
            "POSITION": 12,
            "TEXCOORD_0": 14
          },
          "indices": 15,
          "material": 0,
          "mode": 4
        }
      ]
    },
    {
      "name": "Object_4",
      "primitives": [
        {
          "attributes": {
            "NORMAL": 17,
            "POSITION": 16,
            "TEXCOORD_0": 18
          },
          "indices": 19,
          "material": 0,
          "mode": 4
        }
      ]
    },
    {
      "name": "Object_5",
      "primitives": [
        {
          "attributes": {
            "NORMAL": 21,
            "POSITION": 20,
            "TEXCOORD_0": 22
          },
          "indices": 23,
          "material": 0,
          "mode": 4
        }
      ]
    },
    {
      "name": "Object_6",
      "primitives": [
        {
          "attributes": {
            "NORMAL": 25,
            "POSITION": 24,
            "TEXCOORD_0": 26
          },
          "indices": 27,
          "material": 1,
          "mode": 4
        }
      ]
    },
    {
      "name": "Object_7",
      "primitives": [
        {
          "attributes": {
            "NORMAL": 29,
            "POSITION": 28,
            "TEXCOORD_0": 30
          },
          "indices": 31,
          "material": 1,
          "mode": 4
        }
      ]
    },
    {
      "name": "Object_8",
      "primitives": [
        {
          "attributes": {
            "NORMAL": 33,
            "POSITION": 32,
            "TEXCOORD_0": 34
          },
          "indices": 35,
          "material": 1,
          "mode": 4
        }
      ]
    },
    {
      "name": "Object_9",
      "primitives": [
        {
          "attributes": {
            "NORMAL": 37,
            "POSITION": 36,
            "TEXCOORD_0": 38
          },
          "indices": 39,
          "material": 1,
          "mode": 4
        }
      ]
    },
    {
      "name": "Object_10",
      "primitives": [
        {
          "attributes": {
            "NORMAL": 41,
            "POSITION": 40,
            "TEXCOORD_0": 42
          },
          "indices": 43,
          "material": 1,
          "mode": 4
        }
      ]
    }
  ],
  "nodes": [
    {
      "children": [
        1
      ],
      "matrix": [
        1.0,
        0.0,
        0.0,
        0.0,
        0.0,
        2.220446049250313e-16,
        -1.0,
        0.0,
        0.0,
        1.0,
        2.220446049250313e-16,
        0.0,
        0.0,
        0.0,
        0.0,
        1.0
      ],
      "name": "Sketchfab_model"
    },
    {
      "children": [
        2
      ],
      "name": "root"
    },
    {
      "children": [
        3
      ],
      "matrix": [
        1.0,
        0.0,
        0.0,
        0.0,
        0.0,
        2.220446049250313e-16,
        1.0,
        0.0,
        0.0,
        -1.0,
        2.220446049250313e-16,
        0.0,
        0.0,
        0.0,
        0.0,
        1.0
      ],
      "name": "GLTF_SceneRootNode"
    },
    {
      "children": [
        4
      ],
      "matrix": [
        1.0,
        0.0,
        0.0,
        0.0,
        0.0,
        -2.220446049250313e-16,
        -1.0,
        0.0,
        0.0,
        1.0,
        -2.220446049250313e-16,
        0.0,
        0.0,
        0.0,
        0.0,
        1.0
      ],
      "name": "output_srtm_6"
    },
    {
      "children": [
        5,
        6,
        7,
        8,
        9,
        10,
        11,
        13,
        15,
        17,
        19
      ],
      "matrix": [
        1.0,
        0.0,
        0.0,
        0.0,
        0.0,
        1.0,
        0.0,
        0.0,
        0.0,
        0.0,
        0.0031282815616577864,
        0.0,
        0.0,
        0.0,
        0.0,
        1.0
      ],
      "name": "_5"
    },
    {
      "mesh": 0,
      "name": "Object_5"
    },
    {
      "mesh": 1,
      "name": "Object_6"
    },
    {
      "mesh": 2,
      "name": "Object_7"
    },
    {
      "mesh": 3,
      "name": "Object_8"
    },
    {
      "mesh": 4,
      "name": "Object_9"
    },
    {
      "mesh": 5,
      "name": "Object_10"
    },
    {
      "children": [
        12
      ],
      "matrix": [
        1.0,
        0.0,
        0.0,
        0.0,
        0.0,
        -2.220446049250313e-16,
        1.0,
        0.0,
        0.0,
        -1.0,
        -2.220446049250313e-16,
        0.0,
        0.0,
        -31.28078842163086,
        0.0,
        1.0
      ],
      "name": "side_0"
    },
    {
      "mesh": 6,
      "name": "Object_12"
    },
    {
      "children": [
        14
      ],
      "matrix": [
        -1.0,
        1.2246468525851679e-16,
        0.0,
        0.0,
        0.0,
        -2.220446049250313e-16,
        1.0,
        0.0,
        1.2246468525851679e-16,
        1.0,
        -2.220446049250313e-16,
        0.0,
        0.0,
        31.28078842163086,
        0.0,
        1.0
      ],
      "name": "side_1"
    },
    {
      "mesh": 7,
      "name": "Object_14"
    },
    {
      "children": [
        16
      ],
      "matrix": [
        -2.220446049250313e-16,
        0.0,
        1.0,
        0.0,
        0.0,
        1.0,
        0.0,
        0.0,
        -1.0,
        0.0,
        -2.220446049250313e-16,
        0.0,
        -50.0,
        0.0,
        0.0,
        1.0
      ],
      "name": "side_2"
    },
    {
      "mesh": 8,
      "name": "Object_16"
    },
    {
      "children": [
        18
      ],
      "matrix": [
        -2.220446049250313e-16,
        0.0,
        -1.0,
        0.0,
        0.0,
        1.0,
        0.0,
        0.0,
        1.0,
        0.0,
        -2.220446049250313e-16,
        0.0,
        50.0,
        0.0,
        0.0,
        1.0
      ],
      "name": "side_3"
    },
    {
      "mesh": 9,
      "name": "Object_18"
    },
    {
      "children": [
        20
      ],
      "matrix": [
        1.0,
        0.0,
        0.0,
        0.0,
        0.0,
        -1.0,
        1.2246468525851679e-16,
        0.0,
        0.0,
        -1.2246468525851679e-16,
        -1.0,
        0.0,
        0.0,
        0.0,
        -479.4964904785156,
        1.0
      ],
      "name": "bottom_4"
    },
    {
      "mesh": 10,
      "name": "Object_20"
    }
  ],
  "samplers": [
    {
      "magFilter": 9729,
      "minFilter": 9987,
      "wrapS": 10497,
      "wrapT": 10497
    }
  ],
  "scene": 0,
  "scenes": [
    {
      "name": "Sketchfab_Scene",
      "nodes": [
        0
      ]
    }
  ],
  "textures": [
    {
      "sampler": 0,
      "source": 0
    }
  ]
}
